<?xml version="1.0" standalone="no"?><!DOCTYPE svg PUBLIC "-//W3C//DTD SVG 1.1//EN" "http://www.w3.org/Graphics/SVG/1.1/DTD/svg11.dtd"><svg t="1618633840776" class="icon" viewBox="0 0 1024 1024" version="1.1" xmlns="http://www.w3.org/2000/svg" p-id="15764" xmlns:xlink="http://www.w3.org/1999/xlink" width="48" height="48"><defs><style type="text/css"></style></defs><path d="M616.66 407.74m-240.41 0a240.41 240.41 0 1 0 480.82 0 240.41 240.41 0 1 0-480.82 0Z" fill="#F4E43E" p-id="15765"></path><path d="M404.89 184.12H104.75c-16.36 0-29.62-13.26-29.62-29.62s13.26-29.62 29.62-29.62h300.14c16.36 0 29.62 13.26 29.62 29.62s-13.26 29.62-29.62 29.62zM477.24 527.7H99.54c-15.66 0-28.36-12.7-28.36-28.36v-2.52c0-15.66 12.7-28.36 28.36-28.36h377.69c15.66 0 28.36 12.7 28.36 28.36v2.52c0 15.66-12.69 28.36-28.35 28.36zM870.89 891.02H100.8c-16.36 0-29.62-13.26-29.62-29.62s13.26-29.62 29.62-29.62h770.09c16.36 0 29.62 13.26 29.62 29.62s-13.26 29.62-29.62 29.62zM730.7 527.55c-59.03 0-114.53-22.99-156.28-64.73s-64.73-97.24-64.73-156.28 22.99-114.53 64.73-156.28 97.24-64.73 156.28-64.73 114.53 22.99 156.28 64.73c41.74 41.74 64.73 97.24 64.73 156.28s-22.99 114.53-64.73 156.28c-41.75 41.75-97.25 64.73-156.28 64.73z m0-394.91c-95.89 0-173.91 78.02-173.91 173.91s78.01 173.9 173.91 173.9c95.89 0 173.91-78.02 173.91-173.91s-78.02-173.9-173.91-173.9z" fill="#666666" p-id="15766"></path><path d="M916.22 797.98L784.06 524.07c-6.16-12.76-0.8-28.09 11.96-34.25l7.15-3.45c12.76-6.16 28.09-0.8 34.25 11.96l132.16 273.91c6.16 12.76 0.8 28.09-11.96 34.25l-7.15 3.45c-12.76 6.15-28.09 0.79-34.25-11.96z" fill="#666666" p-id="15767"></path></svg>