<?xml version="1.0" standalone="no"?><!DOCTYPE svg PUBLIC "-//W3C//DTD SVG 1.1//EN" "http://www.w3.org/Graphics/SVG/1.1/DTD/svg11.dtd"><svg t="1618633640668" class="icon" viewBox="0 0 1024 1024" version="1.1" xmlns="http://www.w3.org/2000/svg" p-id="10086" width="48" height="48" xmlns:xlink="http://www.w3.org/1999/xlink"><defs><style type="text/css"></style></defs><path d="M68.8 426.42c-8.88-12.68-5.8-30.16 6.88-39.05L489.06 97.93c12.68-8.88 30.16-5.8 39.05 6.88 8.88 12.68 5.8 30.16-6.88 39.05L107.85 433.31c-12.68 8.88-30.17 5.79-39.05-6.89z" fill="#666666" p-id="10087"></path><path d="M953.8 426.42c8.88-12.68 5.8-30.16-6.88-39.05L533.54 97.93c-12.68-8.88-30.16-5.8-39.05 6.88-8.88 12.68-5.8 30.16 6.88 39.05l413.38 289.45c12.69 8.88 30.17 5.79 39.05-6.89z" fill="#666666" p-id="10088"></path><path d="M503.76 605.16m-208.2 0a208.2 208.2 0 1 0 416.4 0 208.2 208.2 0 1 0-416.4 0Z" fill="#F4E43E" p-id="10089"></path><path d="M404.99 901.79H195.74c-39.59 0-71.8-31.14-71.8-69.41V491.77c0-13.81 11.19-25 25-25s25 11.19 25 25v340.61c0 10.7 9.78 19.41 21.8 19.41H405c13.81 0 25 11.19 25 25s-11.2 25-25.01 25z" fill="#666666" p-id="10090"></path><path d="M640.49 901.79c-13.81 0-25-11.19-25-25V612.88c0-14.61-8.86-26.96-19.36-26.96H419.44c-10.49 0-19.36 12.35-19.36 26.96v263.91c0 13.81-11.19 25-25 25s-25-11.19-25-25V612.88c0-42.44 31.11-76.96 69.36-76.96h176.69c38.24 0 69.36 34.52 69.36 76.96v263.91c0 13.81-11.19 25-25 25z" fill="#666666" p-id="10091"></path><path d="M825.08 900.56H615.83c-13.81 0-25-11.19-25-25s11.19-25 25-25h209.26c12.02 0 21.8-8.71 21.8-19.41V490.54c0-13.81 11.19-25 25-25s25 11.19 25 25v340.61c-0.01 38.28-32.22 69.41-71.81 69.41z" fill="#666666" p-id="10092"></path></svg>