<?xml version="1.0" standalone="no"?><!DOCTYPE svg PUBLIC "-//W3C//DTD SVG 1.1//EN" "http://www.w3.org/Graphics/SVG/1.1/DTD/svg11.dtd"><svg t="1618633903036" class="icon" viewBox="0 0 1024 1024" version="1.1" xmlns="http://www.w3.org/2000/svg" p-id="19139" xmlns:xlink="http://www.w3.org/1999/xlink" width="48" height="48"><defs><style type="text/css"></style></defs><path d="M503.46 510.11m-266.9 0a266.9 266.9 0 1 0 533.8 0 266.9 266.9 0 1 0-533.8 0Z" fill="#F4E428" p-id="19140"></path><path d="M629.64 963.46c-16.29 0-32.37-6.68-44.24-19.42-16.08-17.27-43.28-37.73-81.51-37.15-37.02 0.56-63.08 20.51-78.42 37.15-9.27 10.06-21.88 16.67-35.49 18.63-13.4 1.93-27.24-0.75-38.98-7.52l-154.48-89.19c-24.16-13.95-35.48-42.51-27.54-69.46 6.29-21.34 10.08-53.5-7.61-85.56-18.54-33.62-49.78-47.37-72.71-52.99-27.14-6.64-46.09-30.7-46.09-58.5V420.53c0-28.07 19.31-52.21 46.97-58.7 33.62-7.89 60.99-29.66 75.09-59.72 14.14-30.14 10.19-59.62 4.39-79.04-8.03-26.89 3.29-55.45 27.53-69.45L350.24 64.9c25.12-14.5 56.99-9.05 75.78 12.96 14.4 16.87 39.04 37.33 74.67 38.98 32.09 1.49 63.69-12.78 84.55-38.16 18.54-22.57 50.58-28.22 76.18-13.44l153.94 88.88c23.37 13.49 34.94 41.17 28.13 67.31-5.65 21.7-8.49 54.37 10.06 86.84 18.76 32.84 48.83 46.95 70.74 53 26 7.18 44.16 31.03 44.16 58v180.17c0 27.95-19.15 51.91-46.58 58.27-20.99 4.87-50.01 16.91-69.09 46.64-17.35 27.03-21.57 60.46-11.58 91.71 8.52 26.64-3.13 56.27-27.7 70.46l-153.9 88.85c-9.39 5.45-19.71 8.09-29.96 8.09zM505.48 849.27c61.17 0 102.66 34.66 122.08 55.51 0.75 0.81 2.09 1.38 3.25 0.71l153.9-88.85c1.31-0.76 1.9-2.17 1.63-3.02-15.24-47.68-8.69-98.85 17.97-140.38 29.54-46.02 73.16-64.36 104.56-71.64 0.99-0.23 1.98-0.98 1.98-2.15V419.28c0-1.17-0.76-2.16-1.89-2.47-26.49-7.32-75.41-27.43-105.42-79.95-29.66-51.91-22.63-103.69-15.8-129.93 0.3-1.15-0.18-2.32-1.19-2.9l-153.94-88.88c-1.08-0.62-2.4-0.45-2.87 0.12-30.79 37.46-76.9 59.3-124.52 59.3-2.4 0-4.8-0.06-7.21-0.17-43.88-2.04-85-23.04-115.81-59.13-0.76-0.89-2.09-1.09-3.16-0.48l-153.66 88.72c-1.05 0.61-1.51 1.84-1.14 3.07 8.67 29.03 14.42 73.41-7.44 120-10.64 22.68-26.77 43.01-46.65 58.8-19.54 15.52-42.86 26.77-67.43 32.54-1.26 0.29-2.53 1.22-2.53 2.62v178.93c0 1.2 0.88 2.23 2.18 2.55 27.94 6.84 79.32 26.48 109.46 81.12 21.29 38.59 25.7 84.64 12.42 129.67-0.33 1.13-0.13 2.58 1.09 3.28l154.47 89.19c1.12 0.65 2.58 0.53 3.31-0.27 32.5-35.24 75.08-55.02 119.9-55.7 0.83-0.03 1.65-0.04 2.46-0.04z" fill="#666666" p-id="19141"></path><path d="M503.46 709.38c-108.91 0-197.52-88.61-197.52-197.52s88.61-197.52 197.52-197.52 197.52 88.61 197.52 197.52-88.6 197.52-197.52 197.52z m0-341.55c-79.42 0-144.03 64.61-144.03 144.03s64.61 144.03 144.03 144.03 144.03-64.61 144.03-144.03-64.61-144.03-144.03-144.03z" fill="#666666" p-id="19142"></path></svg>