<?xml version="1.0" standalone="no"?><!DOCTYPE svg PUBLIC "-//W3C//DTD SVG 1.1//EN" "http://www.w3.org/Graphics/SVG/1.1/DTD/svg11.dtd"><svg t="1618633760947" class="icon" viewBox="0 0 1024 1024" version="1.1" xmlns="http://www.w3.org/2000/svg" p-id="10961" xmlns:xlink="http://www.w3.org/1999/xlink" width="48" height="48"><defs><style type="text/css"></style></defs><path d="M505.36 530.88m-237.22 0a237.22 237.22 0 1 0 474.44 0 237.22 237.22 0 1 0-474.44 0Z" fill="#F4E428" p-id="10962"></path><path d="M751.35 922.17c-8.5 0-17.05-2.05-24.95-6.2L511.33 802.9 296.26 915.96c-18.16 9.54-39.75 7.99-56.35-4.07s-24.75-32.11-21.28-52.33l41.07-239.48-173.99-169.6c-14.69-14.32-19.88-35.33-13.54-54.85s22.89-33.46 43.19-36.41l240.45-34.94 107.53-217.89c9.08-18.4 27.46-29.82 47.98-29.82 20.51 0 38.9 11.43 47.98 29.82l107.53 217.89 240.46 34.94c20.3 2.95 36.85 16.9 43.19 36.41 6.34 19.51 1.15 40.53-13.54 54.85l-173.99 169.6 41.07 239.48c3.47 20.22-4.69 40.27-21.28 52.33-9.37 6.82-20.35 10.28-31.39 10.28zM511.33 747.71c8.55 0 17.1 2.05 24.9 6.15l213.09 112.03-40.7-237.28a53.478 53.478 0 0 1 15.39-47.36L896.4 413.21l-238.24-34.62a53.46 53.46 0 0 1-40.28-29.27L511.33 133.43 404.79 349.32a53.524 53.524 0 0 1-40.28 29.27l-238.24 34.62 172.39 168.04a53.524 53.524 0 0 1 15.39 47.36l-40.7 237.28 213.09-112.03c7.79-4.1 16.34-6.15 24.89-6.15z" fill="#666666" p-id="10963"></path></svg>